<svg width="1022" height="400" viewBox="0 0 1022 400" fill="none" xmlns="http://www.w3.org/2000/svg">
<path d="M1014 0C1018.42 0 1022 3.58172 1022 8V392C1022 396.418 1018.42 400 1014 400H8C3.58172 400 0 396.418 0 392V8C0 3.58172 3.58172 0 8 0H1014Z" fill="#111827"/>
<path d="M1014 0C1018.42 0 1022 3.58172 1022 8V392C1022 396.418 1018.42 400 1014 400H8C3.58172 400 0 396.418 0 392V8C0 3.58172 3.58172 0 8 0H1014Z" stroke="#E5E7EB"/>
<path d="M277.929 171.216V165.168H294.249V234H287.433V171.216H277.929ZM309.224 198.96C309.224 187.952 310.92 179.408 314.312 173.328C317.704 167.248 323.784 164.208 332.552 164.208C341.32 164.208 347.4 167.248 350.792 173.328C354.184 179.408 355.88 187.952 355.88 198.96C355.88 210.16 354.184 218.832 350.792 224.976C347.4 231.12 341.32 234.192 332.552 234.192C323.72 234.192 317.608 231.12 314.216 224.976C310.888 218.832 309.224 210.16 309.224 198.96ZM349.256 198.96C349.256 193.008 348.84 187.984 348.008 183.888C347.176 179.792 345.544 176.496 343.112 174C340.68 171.504 337.16 170.256 332.552 170.256C327.944 170.256 324.424 171.504 321.992 174C319.56 176.496 317.928 179.792 317.096 183.888C316.264 187.984 315.848 193.008 315.848 198.96C315.848 205.104 316.264 210.256 317.096 214.416C317.928 218.512 319.56 221.808 321.992 224.304C324.424 226.8 327.944 228.048 332.552 228.048C337.16 228.048 340.68 226.8 343.112 224.304C345.544 221.808 347.176 218.512 348.008 214.416C348.84 210.256 349.256 205.104 349.256 198.96ZM367.037 228.72C378.813 219.888 387.901 211.984 394.301 205.008C400.765 197.968 403.997 191.088 403.997 184.368C403.997 179.952 402.877 176.432 400.637 173.808C398.461 171.12 394.877 169.776 389.885 169.776C385.021 169.776 381.245 171.312 378.557 174.384C375.933 177.392 374.461 181.424 374.141 186.48H367.613C367.997 179.376 370.173 173.872 374.141 169.968C378.173 166 383.421 164.016 389.885 164.016C396.093 164.016 401.117 165.776 404.957 169.296C408.797 172.752 410.717 177.68 410.717 184.08C410.717 191.824 407.485 199.344 401.021 206.64C394.621 213.872 386.717 220.944 377.309 227.856H412.829V233.52H367.037V228.72ZM421.974 228.72C433.75 219.888 442.838 211.984 449.238 205.008C455.702 197.968 458.934 191.088 458.934 184.368C458.934 179.952 457.814 176.432 455.574 173.808C453.398 171.12 449.814 169.776 444.822 169.776C439.958 169.776 436.182 171.312 433.494 174.384C430.87 177.392 429.398 181.424 429.078 186.48H422.55C422.934 179.376 425.11 173.872 429.078 169.968C433.11 166 438.358 164.016 444.822 164.016C451.03 164.016 456.054 165.776 459.894 169.296C463.734 172.752 465.654 177.68 465.654 184.08C465.654 191.824 462.422 199.344 455.958 206.64C449.558 213.872 441.654 220.944 432.246 227.856H467.766V233.52H421.974V228.72ZM533.495 234L519.959 212.88L506.903 234H499.799L516.695 207.792L499.991 181.584H507.575L520.919 202.416L533.879 181.584H540.887L524.183 207.504L541.079 234H533.495ZM572.123 217.68V212.592L607.067 165.552H615.035V211.824H625.307V217.68H615.035V234H608.411V217.68H572.123ZM608.699 172.944L579.899 211.824H608.699V172.944ZM633.974 198.96C633.974 187.952 635.67 179.408 639.062 173.328C642.454 167.248 648.534 164.208 657.302 164.208C666.07 164.208 672.15 167.248 675.542 173.328C678.934 179.408 680.63 187.952 680.63 198.96C680.63 210.16 678.934 218.832 675.542 224.976C672.15 231.12 666.07 234.192 657.302 234.192C648.47 234.192 642.358 231.12 638.966 224.976C635.638 218.832 633.974 210.16 633.974 198.96ZM674.006 198.96C674.006 193.008 673.59 187.984 672.758 183.888C671.926 179.792 670.294 176.496 667.862 174C665.43 171.504 661.91 170.256 657.302 170.256C652.694 170.256 649.174 171.504 646.742 174C644.31 176.496 642.678 179.792 641.846 183.888C641.014 187.984 640.598 193.008 640.598 198.96C640.598 205.104 641.014 210.256 641.846 214.416C642.678 218.512 644.31 221.808 646.742 224.304C649.174 226.8 652.694 228.048 657.302 228.048C661.91 228.048 665.43 226.8 667.862 224.304C670.294 221.808 671.926 218.512 672.758 214.416C673.59 210.256 674.006 205.104 674.006 198.96ZM693.131 198.96C693.131 187.952 694.827 179.408 698.219 173.328C701.611 167.248 707.691 164.208 716.459 164.208C725.227 164.208 731.307 167.248 734.699 173.328C738.091 179.408 739.787 187.952 739.787 198.96C739.787 210.16 738.091 218.832 734.699 224.976C731.307 231.12 725.227 234.192 716.459 234.192C707.627 234.192 701.515 231.12 698.123 224.976C694.795 218.832 693.131 210.16 693.131 198.96ZM733.163 198.96C733.163 193.008 732.747 187.984 731.915 183.888C731.083 179.792 729.451 176.496 727.019 174C724.587 171.504 721.067 170.256 716.459 170.256C711.851 170.256 708.331 171.504 705.899 174C703.467 176.496 701.835 179.792 701.003 183.888C700.171 187.984 699.755 193.008 699.755 198.96C699.755 205.104 700.171 210.256 701.003 214.416C701.835 218.512 703.467 221.808 705.899 224.304C708.331 226.8 711.851 228.048 716.459 228.048C721.067 228.048 724.587 226.8 727.019 224.304C729.451 221.808 731.083 218.512 731.915 214.416C732.747 210.256 733.163 205.104 733.163 198.96Z" fill="white"/>
</svg>
