<svg width="290" height="232" viewBox="0 0 290 232" fill="none" xmlns="http://www.w3.org/2000/svg">
<path d="M0.833496 15.0832C0.833496 11.2596 2.35239 7.5927 5.05604 4.88905C7.75969 2.1854 11.4266 0.666504 15.2502 0.666504H274.75C278.574 0.666504 282.241 2.1854 284.944 4.88905C287.648 7.5927 289.167 11.2596 289.167 15.0832C289.167 18.9067 287.648 22.5736 284.944 25.2773C282.241 27.9809 278.574 29.4998 274.75 29.4998H15.2502C11.4266 29.4998 7.75969 27.9809 5.05604 25.2773C2.35239 22.5736 0.833496 18.9067 0.833496 15.0832ZM274.75 87.1665H15.2502C11.4266 87.1665 7.75969 88.6854 5.05604 91.3891C2.35239 94.0927 0.833496 97.7596 0.833496 101.583C0.833496 105.407 2.35239 109.074 5.05604 111.777C7.75969 114.481 11.4266 116 15.2502 116H274.75C278.574 116 282.241 114.481 284.944 111.777C287.648 109.074 289.167 105.407 289.167 101.583C289.167 97.7596 287.648 94.0927 284.944 91.3891C282.241 88.6854 278.574 87.1665 274.75 87.1665ZM159.417 173.667H15.2502C11.4266 173.667 7.75969 175.185 5.05604 177.889C2.35239 180.593 0.833496 184.26 0.833496 188.083C0.833496 191.907 2.35239 195.574 5.05604 198.277C7.75969 200.981 11.4266 202.5 15.2502 202.5H159.417C163.24 202.5 166.907 200.981 169.611 198.277C172.315 195.574 173.833 191.907 173.833 188.083C173.833 184.26 172.315 180.593 169.611 177.889C166.907 175.185 163.24 173.667 159.417 173.667ZM274.75 173.667H260.334V159.25C260.334 155.426 258.815 151.759 256.111 149.056C253.407 146.352 249.74 144.833 245.917 144.833C242.093 144.833 238.426 146.352 235.723 149.056C233.019 151.759 231.5 155.426 231.5 159.25V173.667H217.084C213.26 173.667 209.593 175.185 206.889 177.889C204.186 180.593 202.667 184.26 202.667 188.083C202.667 191.907 204.186 195.574 206.889 198.277C209.593 200.981 213.26 202.5 217.084 202.5H231.5V216.917C231.5 220.74 233.019 224.407 235.723 227.111C238.426 229.814 242.093 231.333 245.917 231.333C249.74 231.333 253.407 229.814 256.111 227.111C258.815 224.407 260.334 220.74 260.334 216.917V202.5H274.75C278.574 202.5 282.241 200.981 284.944 198.277C287.648 195.574 289.167 191.907 289.167 188.083C289.167 184.26 287.648 180.593 284.944 177.889C282.241 175.185 278.574 173.667 274.75 173.667Z" fill="#21A4B5"/>
</svg>
