<svg width="354" height="354" viewBox="0 0 354 354" fill="none" xmlns="http://www.w3.org/2000/svg">
<path d="M140.125 136.438C140.125 131.332 138.611 126.342 135.775 122.097C132.938 117.852 128.907 114.544 124.191 112.59C119.474 110.636 114.284 110.125 109.277 111.121C104.27 112.117 99.6703 114.575 96.0603 118.185C92.4504 121.795 89.992 126.395 88.996 131.402C88 136.409 88.5112 141.599 90.4649 146.316C92.4185 151.032 95.727 155.063 99.9718 157.9C104.217 160.736 109.207 162.25 114.312 162.25C121.158 162.25 127.724 159.53 132.565 154.69C137.405 149.849 140.125 143.283 140.125 136.438ZM103.25 136.438C103.25 134.25 103.899 132.111 105.114 130.292C106.33 128.472 108.058 127.054 110.079 126.217C112.1 125.38 114.325 125.161 116.471 125.588C118.617 126.014 120.588 127.068 122.135 128.615C123.682 130.162 124.736 132.133 125.162 134.279C125.589 136.425 125.37 138.65 124.533 140.671C123.696 142.692 122.278 144.42 120.458 145.636C118.639 146.851 116.5 147.5 114.312 147.5C111.379 147.5 108.565 146.334 106.49 144.26C104.416 142.185 103.25 139.371 103.25 136.438ZM295.885 115.861L216.014 35.99C211.868 31.8396 206.245 29.5052 200.379 29.5H73.75C67.8821 29.5 62.2545 31.831 58.1053 35.9803C53.956 40.1295 51.625 45.7571 51.625 51.625V88.5C51.625 90.456 52.402 92.3318 53.7851 93.7149C55.1682 95.098 57.044 95.875 59 95.875C60.956 95.875 62.8318 95.098 64.2149 93.7149C65.598 92.3318 66.375 90.456 66.375 88.5V51.625C66.375 49.669 67.152 47.7932 68.5351 46.4101C69.9182 45.027 71.794 44.25 73.75 44.25H199.125V110.625C199.125 116.493 201.456 122.12 205.605 126.27C209.755 130.419 215.382 132.75 221.25 132.75H287.625V246.104L251.93 205.91C249.927 203.648 247.483 201.821 244.747 200.54C242.012 199.259 239.042 198.552 236.023 198.462C233.003 198.372 229.998 198.901 227.191 200.017C224.383 201.134 221.835 202.813 219.701 204.951L192.488 232.165L156.055 191.16C154.052 188.898 151.608 187.071 148.872 185.79C146.137 184.509 143.167 183.802 140.148 183.712C137.128 183.622 134.123 184.151 131.316 185.267C128.508 186.384 125.96 188.063 123.826 190.201L66.375 247.726V118C66.375 116.044 65.598 114.168 64.2149 112.785C62.8318 111.402 60.956 110.625 59 110.625C57.044 110.625 55.1682 111.402 53.7851 112.785C52.402 114.168 51.625 116.044 51.625 118V302.375C51.625 308.243 53.956 313.87 58.1053 318.02C62.2545 322.169 67.8821 324.5 73.75 324.5H280.25C286.118 324.5 291.745 322.169 295.895 318.02C300.044 313.87 302.375 308.243 302.375 302.375V131.496C302.37 125.63 300.035 120.007 295.885 115.861ZM221.25 118C219.294 118 217.418 117.223 216.035 115.84C214.652 114.457 213.875 112.581 213.875 110.625V54.6487L277.226 118H221.25ZM66.375 302.375V268.524L134.299 200.674C134.969 199.925 135.804 199.342 136.739 198.97C137.673 198.599 138.681 198.45 139.683 198.535C140.691 198.53 141.689 198.745 142.606 199.165C143.523 199.586 144.338 200.201 144.992 200.969L241.679 309.75H73.75C71.794 309.75 69.9182 308.973 68.5351 307.59C67.152 306.207 66.375 304.331 66.375 302.375ZM280.25 309.75H261.444L202.444 243.375L230.321 215.571C230.98 214.808 231.814 214.215 232.751 213.843C233.689 213.47 234.702 213.33 235.705 213.433C236.714 213.427 237.712 213.642 238.629 214.063C239.546 214.483 240.36 215.099 241.015 215.866L287.625 268.303V302.375C287.625 304.331 286.848 306.207 285.465 307.59C284.082 308.973 282.206 309.75 280.25 309.75Z" fill="#44A2B4"/>
</svg>
