<svg width="18" height="24" viewBox="0 0 18 24" fill="none" xmlns="http://www.w3.org/2000/svg">
<g clip-path="url(#clip0_544_712)">
<g clip-path="url(#clip1_544_712)">
<path d="M3 0C1.34531 0 0 1.34531 0 3V21C0 22.6547 1.34531 24 3 24H15C16.6547 24 18 22.6547 18 21V7.5H12C11.1703 7.5 10.5 6.82969 10.5 6V0H3ZM12 0V6H18L12 0ZM6.375 11.25H9.5625C11.5312 11.25 13.125 12.8438 13.125 14.8125C13.125 16.7812 11.5312 18.375 9.5625 18.375H7.5V19.875C7.5 20.4984 6.99844 21 6.375 21C5.75156 21 5.25 20.4984 5.25 19.875V17.25V12.375C5.25 11.7516 5.75156 11.25 6.375 11.25ZM9.5625 16.125C10.2891 16.125 10.875 15.5391 10.875 14.8125C10.875 14.0859 10.2891 13.5 9.5625 13.5H7.5V16.125H9.5625Z" fill="#F97316"/>
</g>
</g>
<defs>
<clipPath id="clip0_544_712">
<rect width="18" height="24" fill="white"/>
</clipPath>
<clipPath id="clip1_544_712">
<path d="M0 0H18V24H0V0Z" fill="white"/>
</clipPath>
</defs>
</svg>
