<svg width="998" height="308" viewBox="0 0 998 308" fill="none" xmlns="http://www.w3.org/2000/svg">
<path d="M990 0C994.418 0 998 3.58172 998 8V300C998 304.418 994.418 308 990 308H8C3.58173 308 0 304.418 0 300V8C1.54621e-06 3.58172 3.58172 0 8 0H990Z" fill="#F3F4F6"/>
<path d="M990 0C994.418 0 998 3.58172 998 8V300C998 304.418 994.418 308 990 308H8C3.58173 308 0 304.418 0 300V8C1.54621e-06 3.58172 3.58172 0 8 0H990Z" stroke="#E5E7EB"/>
<path d="M350.416 168V123.584H356.368V168H350.416ZM341.328 128.96V123.584H355.728V128.96H341.328ZM363.643 164.352L380.027 147.072C381.691 145.365 382.993 143.893 383.931 142.656C384.87 141.376 385.531 140.203 385.915 139.136C386.342 138.069 386.555 136.96 386.555 135.808C386.555 133.547 385.83 131.776 384.379 130.496C382.929 129.216 381.051 128.576 378.747 128.576C376.486 128.576 374.502 129.131 372.795 130.24C371.089 131.307 369.574 132.971 368.251 135.232L364.027 131.712C365.777 128.811 367.889 126.635 370.363 125.184C372.838 123.691 375.697 122.944 378.939 122.944C381.67 122.944 384.038 123.477 386.043 124.544C388.091 125.611 389.67 127.104 390.779 129.024C391.889 130.944 392.443 133.184 392.443 135.744C392.443 137.579 392.209 139.221 391.739 140.672C391.313 142.123 390.523 143.616 389.371 145.152C388.262 146.645 386.705 148.437 384.699 150.528L371.451 164.16L363.643 164.352ZM363.643 168V164.352L368.763 162.624H393.467V168H363.643ZM417.276 168.64C413.948 168.64 410.898 167.701 408.124 165.824C405.394 163.947 403.218 161.301 401.596 157.888C399.975 154.432 399.164 150.379 399.164 145.728C399.164 141.077 399.954 137.045 401.532 133.632C403.154 130.219 405.33 127.595 408.06 125.76C410.791 123.883 413.799 122.944 417.084 122.944C420.455 122.944 423.506 123.883 426.236 125.76C428.967 127.595 431.122 130.219 432.7 133.632C434.322 137.045 435.132 141.099 435.132 145.792C435.132 150.443 434.322 154.496 432.7 157.952C431.122 161.365 428.967 164.011 426.236 165.888C423.548 167.723 420.562 168.64 417.276 168.64ZM417.148 162.944C419.495 162.944 421.543 162.304 423.292 161.024C425.084 159.701 426.492 157.76 427.516 155.2C428.54 152.64 429.052 149.483 429.052 145.728C429.052 141.973 428.54 138.837 427.516 136.32C426.492 133.76 425.084 131.84 423.292 130.56C421.5 129.237 419.431 128.576 417.084 128.576C414.78 128.576 412.732 129.237 410.94 130.56C409.148 131.84 407.74 133.76 406.716 136.32C405.735 138.837 405.244 141.973 405.244 145.728C405.244 149.483 405.735 152.64 406.716 155.2C407.74 157.76 409.148 159.701 410.94 161.024C412.732 162.304 414.802 162.944 417.148 162.944ZM459.276 168.64C455.948 168.64 452.898 167.701 450.124 165.824C447.394 163.947 445.218 161.301 443.596 157.888C441.975 154.432 441.164 150.379 441.164 145.728C441.164 141.077 441.954 137.045 443.532 133.632C445.154 130.219 447.33 127.595 450.06 125.76C452.791 123.883 455.799 122.944 459.084 122.944C462.455 122.944 465.506 123.883 468.236 125.76C470.967 127.595 473.122 130.219 474.7 133.632C476.322 137.045 477.132 141.099 477.132 145.792C477.132 150.443 476.322 154.496 474.7 157.952C473.122 161.365 470.967 164.011 468.236 165.888C465.548 167.723 462.562 168.64 459.276 168.64ZM459.148 162.944C461.495 162.944 463.543 162.304 465.292 161.024C467.084 159.701 468.492 157.76 469.516 155.2C470.54 152.64 471.052 149.483 471.052 145.728C471.052 141.973 470.54 138.837 469.516 136.32C468.492 133.76 467.084 131.84 465.292 130.56C463.5 129.237 461.431 128.576 459.084 128.576C456.78 128.576 454.732 129.237 452.94 130.56C451.148 131.84 449.74 133.76 448.716 136.32C447.735 138.837 447.244 141.973 447.244 145.728C447.244 149.483 447.735 152.64 448.716 155.2C449.74 157.76 451.148 159.701 452.94 161.024C454.732 162.304 456.802 162.944 459.148 162.944ZM517.661 168L508.189 154.688L507.101 153.664L495.133 137.6H502.109L510.749 149.44L511.837 150.336L524.637 168H517.661ZM494.557 168L507.101 151.104L510.365 155.328L501.341 168H494.557ZM512.285 153.6L508.957 149.504L517.341 137.6H524.061L512.285 153.6ZM554.903 168.64C551.874 168.64 549.165 168.107 546.775 167.04C544.429 165.931 542.445 164.331 540.823 162.24L544.919 158.144C545.901 159.637 547.245 160.832 548.951 161.728C550.701 162.581 552.642 163.008 554.775 163.008C556.781 163.008 558.53 162.624 560.023 161.856C561.559 161.088 562.754 160.021 563.607 158.656C564.503 157.248 564.951 155.584 564.951 153.664C564.951 151.701 564.525 150.037 563.671 148.672C562.818 147.307 561.666 146.283 560.215 145.6C558.807 144.875 557.25 144.512 555.543 144.512C553.794 144.512 552.194 144.725 550.743 145.152C549.335 145.579 547.991 146.304 546.711 147.328L546.775 143.488C547.501 142.592 548.333 141.867 549.271 141.312C550.21 140.757 551.277 140.331 552.471 140.032C553.666 139.733 555.053 139.584 556.631 139.584C559.703 139.584 562.306 140.224 564.439 141.504C566.573 142.784 568.194 144.512 569.303 146.688C570.455 148.864 571.031 151.296 571.031 153.984C571.031 156.8 570.327 159.317 568.919 161.536C567.554 163.755 565.655 165.504 563.223 166.784C560.791 168.021 558.018 168.64 554.903 168.64ZM546.711 147.328L543.447 144.064L545.431 123.584H550.935L548.695 144.64L546.711 147.328ZM546.647 128.96L545.431 123.584H568.791V128.96H546.647ZM594.776 168.64C591.448 168.64 588.398 167.701 585.624 165.824C582.894 163.947 580.718 161.301 579.096 157.888C577.475 154.432 576.664 150.379 576.664 145.728C576.664 141.077 577.454 137.045 579.032 133.632C580.654 130.219 582.83 127.595 585.56 125.76C588.291 123.883 591.299 122.944 594.584 122.944C597.955 122.944 601.006 123.883 603.736 125.76C606.467 127.595 608.622 130.219 610.2 133.632C611.822 137.045 612.632 141.099 612.632 145.792C612.632 150.443 611.822 154.496 610.2 157.952C608.622 161.365 606.467 164.011 603.736 165.888C601.048 167.723 598.062 168.64 594.776 168.64ZM594.648 162.944C596.995 162.944 599.043 162.304 600.792 161.024C602.584 159.701 603.992 157.76 605.016 155.2C606.04 152.64 606.552 149.483 606.552 145.728C606.552 141.973 606.04 138.837 605.016 136.32C603.992 133.76 602.584 131.84 600.792 130.56C599 129.237 596.931 128.576 594.584 128.576C592.28 128.576 590.232 129.237 588.44 130.56C586.648 131.84 585.24 133.76 584.216 136.32C583.235 138.837 582.744 141.973 582.744 145.728C582.744 149.483 583.235 152.64 584.216 155.2C585.24 157.76 586.648 159.701 588.44 161.024C590.232 162.304 592.302 162.944 594.648 162.944ZM636.776 168.64C633.448 168.64 630.398 167.701 627.624 165.824C624.894 163.947 622.718 161.301 621.096 157.888C619.475 154.432 618.664 150.379 618.664 145.728C618.664 141.077 619.454 137.045 621.032 133.632C622.654 130.219 624.83 127.595 627.56 125.76C630.291 123.883 633.299 122.944 636.584 122.944C639.955 122.944 643.006 123.883 645.736 125.76C648.467 127.595 650.622 130.219 652.2 133.632C653.822 137.045 654.632 141.099 654.632 145.792C654.632 150.443 653.822 154.496 652.2 157.952C650.622 161.365 648.467 164.011 645.736 165.888C643.048 167.723 640.062 168.64 636.776 168.64ZM636.648 162.944C638.995 162.944 641.043 162.304 642.792 161.024C644.584 159.701 645.992 157.76 647.016 155.2C648.04 152.64 648.552 149.483 648.552 145.728C648.552 141.973 648.04 138.837 647.016 136.32C645.992 133.76 644.584 131.84 642.792 130.56C641 129.237 638.931 128.576 636.584 128.576C634.28 128.576 632.232 129.237 630.44 130.56C628.648 131.84 627.24 133.76 626.216 136.32C625.235 138.837 624.744 141.973 624.744 145.728C624.744 149.483 625.235 152.64 626.216 155.2C627.24 157.76 628.648 159.701 630.44 161.024C632.232 162.304 634.302 162.944 636.648 162.944Z" fill="#022B3A"/>
</svg>