<svg width="437" height="437" viewBox="0 0 437 437" fill="none" xmlns="http://www.w3.org/2000/svg">
<path d="M382.375 130.189C376.843 127.698 370.701 126.888 364.712 127.859C358.723 128.831 353.151 131.54 348.69 135.652L309.542 172.069V145.667C309.542 131.179 303.787 117.285 293.542 107.041C283.298 96.7966 269.404 91.0415 254.917 91.0415H91.0417C76.5543 91.0415 62.6602 96.7966 52.416 107.041C42.1719 117.285 36.4167 131.179 36.4167 145.667V291.333C36.4167 305.821 42.1719 319.715 52.416 329.959C62.6602 340.203 76.5543 345.958 91.0417 345.958H254.917C269.404 345.958 283.298 340.203 293.542 329.959C303.787 319.715 309.542 305.821 309.542 291.333V264.931L348.872 301.348C354.662 306.589 362.184 309.507 369.993 309.542C374.328 309.531 378.61 308.6 382.557 306.81C387.928 304.638 392.528 300.914 395.772 296.113C399.015 291.313 400.754 285.655 400.766 279.862V157.138C400.739 151.324 398.974 145.65 395.696 140.848C392.419 136.045 387.78 132.333 382.375 130.189Z" fill="#44A2B4"/>
</svg>