<svg width="52" height="52" viewBox="0 0 52 52" fill="none" xmlns="http://www.w3.org/2000/svg">
<path d="M35.9937 37.05C36.5625 37.05 37.1312 36.8063 37.5375 36.4C38.4312 35.5063 38.4312 34.125 37.5375 33.2313L30.225 25.9188L37.5375 18.6063C38.4312 17.7125 38.4312 16.3313 37.5375 15.4375C36.6437 14.5438 35.2625 14.5438 34.3687 15.4375L25.5125 24.4563C24.6187 25.35 24.6187 26.7313 25.5125 27.625L34.3687 36.4813C34.8562 36.8875 35.425 37.05 35.9937 37.05Z" fill="#1695AE"/>
<path d="M35.9937 36.4L27.1375 27.5438C26.2437 26.65 26.2437 25.2688 27.1375 24.375L35.9937 15.5188C36.2375 15.275 36.4812 15.1125 36.725 15.0313C35.9125 14.7063 35.0187 14.8688 34.3687 15.5188L25.5125 24.4563C24.6187 25.35 24.6187 26.7313 25.5125 27.625L34.3687 36.4813C34.775 36.8875 35.3437 37.1313 35.9125 37.1313C36.1562 37.1313 36.4812 37.05 36.725 36.9688C36.4812 36.8063 36.2375 36.6438 35.9937 36.4Z" fill="#29B7D3"/>
<path d="M24.8625 37.05C25.4313 37.05 26 36.8063 26.4063 36.4C27.3 35.5063 27.3 34.125 26.4063 33.2313L19.0938 25.9188L26.4063 18.6063C27.3 17.7125 27.3 16.3313 26.4063 15.4375C25.5125 14.5438 24.1313 14.5438 23.2375 15.4375L14.4625 24.4563C13.5688 25.35 13.5688 26.7313 14.4625 27.625L23.3188 36.4813C23.725 36.8875 24.2938 37.05 24.8625 37.05Z" fill="#1695AE"/>
<path d="M24.9438 36.4L16.0875 27.5438C15.1938 26.65 15.1938 25.2688 16.0875 24.375L24.9438 15.5188C25.1875 15.275 25.4313 15.1125 25.675 15.0313C24.8625 14.7063 23.9688 14.8688 23.3188 15.5188L14.4625 24.4563C13.5688 25.35 13.5688 26.7313 14.4625 27.625L23.3188 36.4813C23.725 36.8875 24.2938 37.1313 24.8625 37.1313C25.1063 37.1313 25.4313 37.05 25.675 36.9688C25.4313 36.8063 25.1875 36.6438 24.9438 36.4Z" fill="#29B7D3"/>
</svg>
