<svg width="15" height="15" viewBox="0 0 15 15" fill="none" xmlns="http://www.w3.org/2000/svg">
<g clip-path="url(#clip0_94_7956)">
<path d="M5.03008 2.52188L4.7457 3.375H2.70312C1.73789 3.375 0.953125 4.15977 0.953125 5.125V12.125C0.953125 13.0902 1.73789 13.875 2.70312 13.875H13.2031C14.1684 13.875 14.9531 13.0902 14.9531 12.125V5.125C14.9531 4.15977 14.1684 3.375 13.2031 3.375H11.1605L10.8762 2.52188C10.6984 1.98594 10.198 1.625 9.63203 1.625H6.27422C5.7082 1.625 5.20781 1.98594 5.03008 2.52188ZM7.95312 6C8.64932 6 9.317 6.27656 9.80928 6.76884C10.3016 7.26113 10.5781 7.92881 10.5781 8.625C10.5781 9.32119 10.3016 9.98887 9.80928 10.4812C9.317 10.9734 8.64932 11.25 7.95312 11.25C7.25693 11.25 6.58925 10.9734 6.09697 10.4812C5.60469 9.98887 5.32812 9.32119 5.32812 8.625C5.32812 7.92881 5.60469 7.26113 6.09697 6.76884C6.58925 6.27656 7.25693 6 7.95312 6Z" fill="white"/>
</g>
<defs>
<clipPath id="clip0_94_7956">
<path d="M0.953125 0.75H14.9531V14.75H0.953125V0.75Z" fill="white"/>
</clipPath>
</defs>
</svg>
