<svg xmlns="http://www.w3.org/2000/svg" xmlns:xlink="http://www.w3.org/1999/xlink" width="1366" zoomAndPan="magnify" viewBox="0 0 1024.5 576" height="768" preserveAspectRatio="xMidYMid meet" version="1.2"><g id="efdd1e4e1d"><path style=" stroke:none;fill-rule:nonzero;fill:#1b7895;fill-opacity:1;" d="M 382.347656 130.296875 C 367.457031 129.511719 348.644531 140.484375 336.105469 152.242188 C 323.5625 164 307.886719 175.753906 291.429688 187.511719 L 220.890625 187.511719 C 206.78125 187.511719 198.160156 199.269531 200.511719 214.160156 L 203.648438 230.621094 C 201.296875 231.402344 198.945312 232.1875 196.59375 232.972656 C 196.59375 232.972656 147.214844 246.292969 147.214844 246.292969 C 125.269531 251.78125 109.59375 276.078125 104.109375 295.671875 C 98.621094 315.265625 98.621094 338.78125 105.675781 362.292969 C 111.945312 385.804688 123.703125 406.183594 138.59375 421.859375 C 151.917969 435.183594 170.726562 446.941406 191.890625 444.589844 L 225.59375 503.371094 C 230.296875 511.210938 238.132812 518.265625 247.539062 522.183594 C 256.945312 525.316406 266.347656 525.316406 274.96875 522.964844 L 322.78125 510.425781 C 334.535156 507.292969 347.078125 498.667969 351.78125 485.34375 C 354.132812 479.074219 354.132812 472.804688 354.132812 468.101562 L 892.582031 468.101562 C 906.691406 468.101562 915.3125 456.347656 912.960938 441.453125 L 873.773438 213.375 C 871.421875 198.484375 858.097656 186.726562 844.773438 186.726562 L 445.832031 186.726562 C 443.480469 182.027344 441.128906 177.324219 437.996094 172.621094 C 430.941406 160.863281 423.886719 150.675781 414.480469 142.835938 C 407.429688 136.566406 397.238281 130.296875 382.347656 130.296875 Z M 382.347656 130.296875 "/><path style=" stroke:none;fill-rule:nonzero;fill:#1b404d;fill-opacity:1;" d="M 391.753906 112.269531 C 376.859375 111.484375 358.050781 122.457031 345.507812 134.214844 C 332.96875 145.972656 317.292969 157.726562 300.835938 169.484375 L 231.078125 169.484375 C 216.972656 169.484375 208.347656 181.242188 210.699219 196.132812 L 213.835938 212.59375 C 211.484375 213.375 209.132812 214.160156 206.78125 214.945312 C 206.78125 214.945312 157.402344 228.269531 157.402344 228.269531 C 135.457031 233.753906 119.78125 258.050781 114.296875 277.644531 C 108.808594 298.808594 108.808594 322.320312 115.082031 345.832031 C 121.351562 369.347656 133.105469 389.726562 148 405.402344 C 161.324219 418.726562 180.132812 430.480469 201.296875 428.128906 L 234.996094 486.914062 C 239.699219 494.75 247.539062 501.804688 256.945312 505.722656 C 266.347656 508.859375 275.753906 508.859375 284.375 506.507812 L 332.1875 493.96875 C 343.941406 490.832031 356.484375 482.210938 361.183594 468.886719 C 363.535156 462.617188 363.535156 456.347656 363.535156 451.644531 L 901.988281 451.644531 C 916.097656 451.644531 924.71875 439.886719 922.367188 424.996094 L 892.582031 196.917969 C 890.230469 182.027344 876.90625 170.269531 863.582031 170.269531 L 456.023438 170.269531 C 453.671875 165.566406 451.320312 160.863281 448.183594 156.160156 C 441.128906 144.402344 434.074219 134.214844 424.671875 126.378906 C 416.832031 118.539062 407.429688 112.269531 391.753906 112.269531 Z M 391.753906 112.269531 "/><path style=" stroke:none;fill-rule:nonzero;fill:#ffffff;fill-opacity:1;" d="M 393.859375 138.917969 C 392.617188 138.796875 391.304688 138.996094 390.035156 139.335938 L 381.136719 141.722656 C 374.917969 143.386719 371.917969 146.3125 368.359375 149.988281 C 339.707031 178.105469 297.429688 206.238281 256.375 224.808594 C 258.933594 277.875 276.78125 337.140625 301.933594 377.335938 C 345.578125 373.519531 394.164062 376.851562 431.71875 386.476562 C 436.742188 387.703125 440.699219 388.914062 446.914062 387.25 L 455.816406 384.863281 C 475.449219 379.605469 476.0625 320.84375 457.820312 252.753906 C 440.710938 188.898438 413.324219 140.367188 393.859375 138.917969 Z M 435.035156 258.707031 C 450.214844 315.355469 452.484375 363.953125 440.191406 367.246094 C 431.011719 369.707031 415.929688 346.191406 402.195312 307.929688 C 416.109375 297.691406 422.265625 279.992188 417.800781 263.324219 C 413.335938 246.652344 399.152344 234.402344 381.984375 232.492188 C 374.890625 192.453125 376.195312 164.546875 387.59375 163.007812 C 399.03125 161.609375 420.351562 203.890625 435.035156 258.707031 Z M 361.609375 176.78125 C 360.367188 187.410156 360.300781 196.207031 362.128906 209.800781 C 329.902344 230.246094 303.164062 243.464844 269.359375 250.097656 C 267.714844 245.089844 266.945312 239.390625 267.117188 232.683594 C 302.296875 219.320312 333.371094 200.242188 361.609375 176.78125 Z M 361.609375 176.78125 "/><path style=" stroke:none;fill-rule:nonzero;fill:#ffffff;fill-opacity:1;" d="M 255.765625 403.9375 C 243.949219 403.925781 232.617188 405.144531 221.910156 407.558594 L 258.886719 471.539062 C 262.832031 478.355469 269.363281 480.695312 277.273438 478.574219 L 324.882812 465.820312 C 336.183594 462.792969 338.480469 453.847656 333.367188 444.925781 L 319.847656 421.59375 C 308.738281 402.164062 275.59375 403.925781 255.765625 403.9375 Z M 255.765625 403.9375 "/><path style=" stroke:none;fill-rule:nonzero;fill:#ffffff;fill-opacity:1;" d="M 535.535156 394.835938 C 528.480469 394.835938 522.996094 394.050781 517.507812 391.699219 C 512.023438 389.347656 508.101562 386.214844 504.96875 381.511719 C 501.832031 376.808594 500.265625 371.320312 500.265625 365.050781 L 523.777344 365.050781 C 523.777344 368.972656 525.347656 371.320312 527.699219 372.890625 C 530.050781 374.457031 532.402344 376.023438 535.535156 376.023438 C 538.671875 376.023438 541.023438 375.242188 543.375 373.671875 C 544.941406 372.105469 546.507812 369.753906 545.722656 366.621094 C 545.722656 364.269531 544.941406 361.917969 543.375 361.132812 C 541.804688 359.566406 540.238281 358 537.886719 357.214844 C 535.535156 356.429688 532.402344 354.863281 528.480469 354.078125 C 522.996094 352.511719 517.507812 350.160156 514.375 348.59375 C 510.453125 347.023438 507.320312 343.890625 504.96875 339.972656 C 502.617188 336.050781 501.050781 331.351562 501.050781 325.863281 C 501.050781 317.242188 504.183594 310.1875 509.671875 305.484375 C 515.941406 300.78125 523.777344 298.429688 533.183594 298.429688 C 542.589844 298.429688 551.210938 300.78125 556.699219 305.484375 C 562.96875 310.1875 566.101562 317.242188 566.886719 325.863281 L 543.375 325.863281 C 543.375 322.726562 541.804688 320.378906 540.238281 318.808594 C 537.886719 317.242188 535.535156 316.457031 532.402344 316.457031 C 530.050781 316.457031 527.699219 317.242188 526.128906 318.808594 C 524.5625 320.375 523.777344 321.945312 523.777344 325.078125 C 523.777344 328.214844 525.347656 330.566406 527.699219 332.132812 C 530.832031 333.699219 534.75 335.269531 540.238281 337.621094 C 545.722656 339.972656 550.425781 341.539062 554.347656 343.890625 C 558.265625 345.457031 561.398438 348.59375 563.75 351.726562 C 566.886719 355.648438 567.671875 360.347656 568.453125 365.835938 C 568.453125 371.320312 567.671875 376.023438 564.535156 380.726562 C 562.183594 385.429688 558.265625 388.566406 553.5625 391.699219 C 548.074219 393.269531 541.804688 394.835938 535.535156 394.835938 Z M 535.535156 394.835938 "/><path style=" stroke:none;fill-rule:nonzero;fill:#ffffff;fill-opacity:1;" d="M 625.667969 394.835938 C 617.046875 394.835938 609.210938 392.484375 601.371094 388.566406 C 594.320312 384.644531 588.046875 378.375 584.128906 371.320312 C 579.425781 363.484375 577.074219 355.648438 577.074219 346.242188 C 577.074219 336.835938 578.644531 329 582.5625 321.945312 C 586.480469 314.890625 591.96875 309.402344 598.238281 305.484375 C 605.292969 301.566406 612.34375 299.214844 620.96875 299.214844 C 629.589844 299.214844 636.640625 301.566406 644.480469 305.484375 C 651.535156 309.402344 657.804688 314.890625 661.722656 321.945312 C 666.425781 329 668.777344 337.621094 669.5625 346.242188 C 670.34375 355.648438 668.777344 364.269531 664.859375 371.320312 C 660.9375 379.160156 656.238281 384.644531 649.183594 388.566406 C 642.128906 392.484375 634.289062 394.835938 625.667969 394.835938 Z M 624.886719 372.890625 C 631.941406 372.890625 637.425781 370.539062 642.128906 365.050781 C 646.046875 360.347656 648.398438 353.296875 647.613281 344.675781 C 646.832031 336.050781 644.480469 329.78125 639.777344 325.078125 C 635.074219 320.378906 629.589844 318.027344 622.535156 318.027344 C 615.480469 318.027344 609.992188 320.378906 605.292969 325.078125 C 601.371094 329.78125 599.019531 336.835938 599.804688 344.675781 C 599.804688 353.296875 602.15625 359.566406 606.859375 365.050781 C 611.5625 370.539062 617.832031 372.890625 624.886719 372.890625 Z M 624.886719 372.890625 "/><path style=" stroke:none;fill-rule:nonzero;fill:#ffffff;fill-opacity:1;" d="M 728.34375 394.835938 C 719.722656 394.835938 711.882812 392.484375 704.046875 388.566406 C 696.992188 384.644531 690.722656 378.375 686.019531 371.320312 C 681.316406 363.484375 678.964844 355.648438 678.183594 346.242188 C 677.398438 336.835938 678.964844 329 682.886719 321.945312 C 686.804688 314.890625 691.507812 309.402344 698.558594 305.484375 C 705.613281 301.566406 712.667969 299.214844 721.289062 299.214844 C 729.910156 299.214844 737.75 301.566406 744.804688 305.484375 C 751.855469 309.402344 758.128906 314.890625 762.828125 321.945312 C 767.53125 329 770.667969 337.621094 771.453125 346.242188 C 772.234375 355.648438 771.453125 364.269531 767.53125 371.320312 C 764.398438 379.160156 758.910156 384.644531 752.640625 388.566406 C 744.804688 392.484375 736.964844 394.835938 728.34375 394.835938 Z M 726.777344 372.890625 C 733.832031 372.890625 739.316406 370.539062 743.234375 365.050781 C 747.152344 360.347656 748.722656 353.296875 747.9375 344.675781 C 747.152344 336.050781 744.804688 329.78125 739.316406 325.078125 C 734.613281 320.378906 729.128906 318.027344 721.289062 318.027344 C 714.234375 318.027344 708.75 320.378906 704.832031 325.078125 C 700.910156 329.78125 699.34375 336.835938 700.128906 344.675781 C 700.910156 353.296875 703.261719 359.566406 707.964844 365.050781 C 713.453125 370.539062 719.722656 372.890625 726.777344 372.890625 Z M 726.777344 372.890625 "/><path style=" stroke:none;fill-rule:nonzero;fill:#ffffff;fill-opacity:1;" d="M 869.421875 394.050781 L 847.476562 394.050781 L 803.585938 335.269531 L 809.855469 394.050781 L 787.910156 394.050781 L 778.503906 300 L 800.449219 300 L 843.558594 358 L 836.503906 300 L 857.667969 300 Z M 869.421875 394.050781 "/><path style=" stroke:none;fill-rule:nonzero;fill:#ffffff;fill-opacity:1;" d="M 499.480469 253.757812 C 499.480469 248.269531 501.050781 242.785156 503.402344 238.082031 C 505.753906 233.378906 509.671875 230.242188 513.589844 227.890625 C 518.292969 225.539062 522.996094 223.972656 528.480469 223.972656 C 535.535156 223.972656 541.023438 225.539062 546.507812 229.460938 C 551.210938 233.378906 555.128906 238.082031 556.699219 244.351562 L 541.023438 244.351562 C 539.453125 242 537.886719 239.648438 536.320312 238.863281 C 533.96875 237.296875 531.617188 237.296875 529.265625 237.296875 C 524.5625 237.296875 521.425781 238.863281 518.292969 242 C 515.941406 245.136719 514.375 249.054688 514.375 254.539062 C 514.375 260.027344 515.941406 263.945312 518.292969 267.082031 C 521.425781 270.214844 524.5625 271.78125 529.265625 271.78125 C 532.402344 271.78125 534.75 271 536.320312 269.433594 C 538.671875 267.863281 540.238281 266.296875 541.023438 263.945312 L 556.699219 263.945312 C 555.128906 270.214844 551.996094 275.703125 547.292969 279.621094 C 542.589844 283.539062 536.320312 285.105469 529.265625 285.105469 C 523.777344 285.105469 518.292969 283.539062 513.589844 281.1875 C 508.886719 278.835938 505.753906 274.917969 503.402344 270.214844 C 501.050781 264.730469 499.480469 259.242188 499.480469 253.757812 Z M 499.480469 253.757812 "/><path style=" stroke:none;fill-rule:nonzero;fill:#ffffff;fill-opacity:1;" d="M 594.320312 284.324219 C 588.832031 284.324219 583.34375 282.757812 578.644531 280.40625 C 573.941406 278.054688 570.023438 274.132812 567.671875 269.433594 C 564.535156 264.730469 563.75 259.242188 562.96875 253.757812 C 562.96875 248.269531 563.75 242.785156 566.886719 238.082031 C 569.238281 233.378906 573.15625 230.242188 577.074219 227.109375 C 581.777344 224.757812 586.480469 223.1875 591.96875 223.1875 C 597.453125 223.1875 602.15625 224.757812 606.859375 227.109375 C 611.5625 229.460938 615.480469 233.378906 617.832031 238.082031 C 620.96875 242.785156 622.535156 247.484375 622.535156 253.757812 C 622.535156 259.242188 621.75 264.730469 619.398438 269.433594 C 617.046875 274.132812 613.128906 278.054688 609.210938 280.40625 C 605.292969 282.757812 599.804688 284.324219 594.320312 284.324219 Z M 594.320312 271 C 599.019531 271 602.941406 269.433594 605.292969 266.296875 C 607.644531 263.160156 609.210938 259.242188 609.210938 253.757812 C 609.210938 248.269531 607.644531 244.351562 604.507812 241.214844 C 601.371094 238.082031 598.238281 236.511719 593.535156 236.511719 C 588.832031 236.511719 584.914062 238.082031 582.5625 241.214844 C 580.210938 244.351562 578.644531 248.269531 578.644531 253.757812 C 578.644531 259.242188 580.210938 263.160156 583.34375 266.296875 C 585.695312 269.433594 588.832031 271 594.320312 271 Z M 594.320312 271 "/><path style=" stroke:none;fill-rule:nonzero;fill:#ffffff;fill-opacity:1;" d="M 695.425781 224.757812 L 700.128906 284.324219 L 685.234375 284.324219 L 682.886719 248.269531 L 671.910156 284.324219 L 660.15625 284.324219 L 644.480469 248.269531 L 646.832031 284.324219 L 632.722656 284.324219 L 629.589844 224.757812 L 646.046875 224.757812 L 664.859375 265.511719 L 678.183594 224.757812 Z M 695.425781 224.757812 "/><path style=" stroke:none;fill-rule:nonzero;fill:#ffffff;fill-opacity:1;" d="M 719.722656 224.757812 L 724.425781 284.324219 L 710.316406 284.324219 L 705.613281 224.757812 Z M 719.722656 224.757812 "/><path style=" stroke:none;fill-rule:nonzero;fill:#ffffff;fill-opacity:1;" d="M 788.695312 283.539062 L 774.585938 283.539062 L 747.152344 246.703125 L 750.289062 283.539062 L 736.179688 283.539062 L 730.695312 223.972656 L 744.804688 223.972656 L 772.234375 260.808594 L 768.316406 223.972656 L 782.425781 223.972656 Z M 788.695312 283.539062 "/><path style=" stroke:none;fill-rule:nonzero;fill:#ffffff;fill-opacity:1;" d="M 833.371094 242.785156 C 831.800781 241.214844 830.234375 239.648438 827.882812 238.082031 C 825.53125 237.296875 823.179688 236.511719 820.828125 236.511719 C 816.125 236.511719 812.992188 238.082031 810.640625 241.214844 C 808.289062 244.351562 807.503906 248.269531 808.289062 253.757812 C 809.074219 259.242188 810.640625 263.160156 813.773438 266.296875 C 816.910156 269.433594 821.613281 271 826.316406 271 C 830.234375 271 832.585938 270.214844 834.9375 268.648438 C 837.289062 267.082031 838.855469 263.945312 839.640625 260.808594 L 821.613281 260.808594 L 820.046875 249.835938 L 851.394531 249.835938 L 852.964844 263.160156 C 852.179688 267.082031 851.394531 270.214844 849.042969 273.351562 C 846.691406 276.484375 844.34375 278.835938 840.421875 281.1875 C 836.503906 282.753906 832.585938 284.324219 827.097656 284.324219 C 821.613281 284.324219 816.125 282.757812 810.640625 280.40625 C 805.9375 278.054688 802.019531 274.132812 798.882812 269.433594 C 795.75 264.730469 794.179688 259.242188 793.398438 253.757812 C 792.613281 248.269531 793.398438 242.785156 795.75 238.082031 C 798.097656 233.378906 801.234375 230.242188 805.152344 227.890625 C 809.070312 225.539062 814.558594 223.972656 820.046875 223.972656 C 827.097656 223.972656 833.371094 225.539062 838.070312 228.675781 C 843.558594 231.8125 847.476562 236.511719 849.828125 242.785156 Z M 833.371094 242.785156 "/><path style=" stroke:none;fill-rule:nonzero;fill:#1b404d;fill-opacity:1;" d="M 426.464844 55.878906 L 418.628906 101.335938 C 417.84375 106.824219 424.113281 108.390625 427.25 102.121094 L 444.492188 62.929688 C 445.277344 59.796875 443.707031 57.445312 441.355469 56.660156 L 431.167969 52.742188 C 428.035156 51.175781 426.464844 53.527344 426.464844 55.878906 Z M 426.464844 55.878906 "/><path style=" stroke:none;fill-rule:nonzero;fill:#1b404d;fill-opacity:1;" d="M 469.574219 77.824219 L 442.925781 115.445312 C 439.007812 120.929688 443.707031 125.632812 449.195312 121.714844 L 486.03125 91.929688 C 488.382812 90.363281 489.167969 87.226562 486.816406 85.660156 L 476.628906 76.253906 C 473.492188 73.902344 471.925781 74.6875 469.574219 77.824219 Z M 469.574219 77.824219 "/><path style=" stroke:none;fill-rule:nonzero;fill:#1b404d;fill-opacity:1;" d="M 493.871094 120.144531 L 460.953125 135.820312 C 455.464844 138.171875 457.816406 144.445312 462.519531 143.660156 L 499.355469 137.390625 C 501.707031 136.605469 504.058594 135.820312 503.277344 133.46875 L 498.574219 122.496094 C 497.003906 118.578125 495.4375 119.363281 493.871094 120.144531 Z M 493.871094 120.144531 "/><path style=" stroke:none;fill-rule:nonzero;fill:#ffffff;fill-opacity:1;" d="M 235.984375 233.152344 C 227.363281 236.285156 218.742188 239.421875 210.121094 240.988281 L 164.660156 252.746094 C 141.933594 258.230469 131.742188 298.988281 141.148438 337.394531 C 152.121094 375.015625 181.121094 404.796875 203.851562 398.527344 C 203.851562 398.527344 211.6875 396.175781 215.605469 395.390625 C 235.984375 389.90625 279.09375 378.933594 279.09375 378.933594 C 252.445312 328.769531 239.121094 280.175781 235.984375 233.152344 Z M 227.363281 247.257812 C 228.148438 254.3125 228.929688 260.582031 230.5 265.285156 L 154.472656 285.664062 C 152.90625 278.609375 155.257812 266.070312 164.660156 263.71875 Z M 227.363281 247.257812 "/></g></svg>