<svg width="30" height="26" viewBox="0 0 30 26" fill="none" xmlns="http://www.w3.org/2000/svg">
<path d="M27.3431 12.5666C24.8233 7.48581 20.0832 4.33331 14.9688 4.33331C9.8545 4.33331 5.11437 7.48581 2.59462 12.5666C2.52593 12.7033 2.49048 12.8509 2.49048 13C2.49048 13.1491 2.52593 13.2966 2.59462 13.4333C5.11437 18.5141 9.8545 21.6666 14.9688 21.6666C20.0832 21.6666 24.8233 18.5141 27.3431 13.4333C27.4118 13.2966 27.4472 13.1491 27.4472 13C27.4472 12.8509 27.4118 12.7033 27.3431 12.5666ZM14.9688 19.5C11.0146 19.5 7.27237 17.0191 5.11437 13C7.27237 8.98081 11.0146 6.49998 14.9688 6.49998C18.9231 6.49998 22.6653 8.98081 24.8233 13C22.6653 17.0191 18.9231 19.5 14.9688 19.5ZM14.9688 8.66665C13.982 8.66665 13.0173 8.92079 12.1968 9.39694C11.3762 9.8731 10.7367 10.5499 10.359 11.3417C9.98139 12.1335 9.88258 13.0048 10.0751 13.8454C10.2676 14.686 10.7428 15.4581 11.4407 16.0641C12.1385 16.6701 13.0275 17.0828 13.9954 17.25C14.9633 17.4173 15.9666 17.3314 16.8783 17.0035C17.79 16.6755 18.5693 16.1201 19.1175 15.4075C19.6658 14.6948 19.9585 13.857 19.9585 13C19.9585 11.8507 19.4328 10.7485 18.497 9.93585C17.5613 9.12319 16.2922 8.66665 14.9688 8.66665ZM14.9688 15.1666C14.4754 15.1666 13.9931 15.0396 13.5828 14.8015C13.1725 14.5634 12.8528 14.225 12.6639 13.8291C12.4751 13.4332 12.4257 12.9976 12.522 12.5773C12.6182 12.157 12.8558 11.7709 13.2048 11.4679C13.5537 11.1649 13.9982 10.9585 14.4821 10.8749C14.9661 10.7913 15.4677 10.8343 15.9236 10.9982C16.3794 11.1622 16.7691 11.4399 17.0432 11.7962C17.3173 12.1526 17.4636 12.5715 17.4636 13C17.4636 13.5746 17.2008 14.1257 16.7329 14.532C16.2651 14.9384 15.6305 15.1666 14.9688 15.1666Z" fill="#023547"/>
</svg>
