<svg width="26" height="26" viewBox="0 0 26 26" fill="none" xmlns="http://www.w3.org/2000/svg">
<path d="M23.7466 12.5667C21.5583 7.48583 17.4416 4.33333 13 4.33333C8.55828 4.33333 4.44162 7.48583 2.25328 12.5667C2.19363 12.7033 2.16284 12.8509 2.16284 13C2.16284 13.1491 2.19363 13.2966 2.25328 13.4333C4.44162 18.5142 8.55828 21.6667 13 21.6667C17.4416 21.6667 21.5583 18.5142 23.7466 13.4333C23.8063 13.2966 23.8371 13.1491 23.8371 13C23.8371 12.8509 23.8063 12.7033 23.7466 12.5667ZM13 19.5C9.56578 19.5 6.31578 17.0192 4.44162 13C6.31578 8.98083 9.56578 6.49999 13 6.49999C16.4341 6.49999 19.6841 8.98083 21.5583 13C19.6841 17.0192 16.4341 19.5 13 19.5ZM13 8.66666C12.1429 8.66666 11.3051 8.92081 10.5925 9.39696C9.87987 9.87311 9.32445 10.5499 8.99647 11.3417C8.66849 12.1335 8.58268 13.0048 8.74988 13.8454C8.91708 14.686 9.32979 15.4581 9.93582 16.0641C10.5418 16.6702 11.314 17.0829 12.1546 17.2501C12.9951 17.4173 13.8664 17.3315 14.6582 17.0035C15.4501 16.6755 16.1268 16.1201 16.603 15.4075C17.0791 14.6949 17.3333 13.857 17.3333 13C17.3333 11.8507 16.8767 10.7485 16.0641 9.93587C15.2514 9.12321 14.1492 8.66666 13 8.66666ZM13 15.1667C12.5714 15.1667 12.1525 15.0396 11.7962 14.8015C11.4399 14.5634 11.1622 14.225 10.9982 13.8291C10.8342 13.4332 10.7913 12.9976 10.8749 12.5773C10.9585 12.157 11.1649 11.7709 11.4679 11.4679C11.7709 11.1649 12.157 10.9586 12.5773 10.875C12.9975 10.7914 13.4332 10.8343 13.8291 10.9983C14.225 11.1622 14.5634 11.44 14.8015 11.7963C15.0395 12.1526 15.1666 12.5715 15.1666 13C15.1666 13.5746 14.9383 14.1257 14.532 14.5321C14.1257 14.9384 13.5746 15.1667 13 15.1667Z" fill="#023547"/>
<path d="M21 6L5 20" stroke="#023547" stroke-width="2" stroke-linecap="round"/>
</svg>
