<svg width="27" height="29" viewBox="0 0 27 29" fill="none" xmlns="http://www.w3.org/2000/svg">
<path d="M11.0703 25.3446C11.0703 25.154 11.0284 24.9658 10.9475 24.7933C10.8666 24.6207 10.7488 24.4681 10.6024 24.3462C10.456 24.2242 10.2846 24.136 10.1002 24.0877C9.91594 24.0395 9.72327 24.0323 9.53589 24.0668C7.83526 24.379 5.68806 24.4259 5.11715 22.8221C4.61934 21.5799 3.79475 20.4956 2.73081 19.6842C2.65489 19.6429 2.58255 19.5953 2.51451 19.5421C2.42139 19.2964 2.256 19.0847 2.04015 18.935C1.82431 18.7852 1.56815 18.7045 1.30547 18.7033H1.29913C0.95564 18.7032 0.626095 18.8392 0.38262 19.0815C0.139146 19.3238 0.00157473 19.6528 1.82147e-05 19.9963C-0.00506129 21.0558 1.05359 21.7347 1.48308 21.9643C1.98953 22.4733 2.39655 23.0723 2.68323 23.7306C3.15645 25.0604 4.53167 27.0779 8.48481 26.8178C8.48611 26.8635 8.48734 26.9066 8.48798 26.946L8.49368 27.2937C8.49368 27.6383 8.63056 27.9688 8.87418 28.2124C9.11782 28.4561 9.44825 28.593 9.79279 28.593C10.1373 28.593 10.4678 28.4561 10.7114 28.2124C10.955 27.9688 11.0919 27.6383 11.0919 27.2937L11.0856 26.88C11.0792 26.6338 11.0703 26.2772 11.0703 25.3446ZM24.9279 5.6909C24.9691 5.52848 25.0098 5.3483 25.0453 5.14528C25.2554 3.69729 25.0722 2.21944 24.515 0.866586C24.4446 0.690219 24.3366 0.531368 24.1984 0.40117C24.0603 0.270971 23.8953 0.172576 23.7151 0.112883C23.2526 -0.0431925 21.545 -0.350263 18.2795 1.73705C15.5651 1.09816 12.7394 1.09816 10.025 1.73705C6.77276 -0.31969 5.07402 -0.0405938 4.61603 0.106594C4.43138 0.163869 4.26189 0.261743 4.11997 0.393042C3.97805 0.524341 3.8673 0.685738 3.79584 0.865404C3.22722 2.24423 3.04605 3.75223 3.27188 5.22653C3.30361 5.39275 3.33785 5.5463 3.37338 5.68713C2.29717 7.12087 1.72392 8.86966 1.74252 10.6624C1.73902 11.0624 1.75744 11.4623 1.79771 11.8602C2.23161 17.8404 6.12893 19.6359 8.84447 20.2526C8.78802 20.415 8.73664 20.5888 8.69097 20.7728C8.60956 21.1071 8.66404 21.4601 8.84244 21.7543C9.02084 22.0485 9.30862 22.2599 9.64266 22.3422C9.97669 22.4246 10.3297 22.371 10.6244 22.1934C10.919 22.0157 11.1311 21.7284 11.2143 21.3946C11.297 20.9617 11.5089 20.5639 11.822 20.2539C12.0114 20.088 12.1485 19.8708 12.2166 19.6285C12.2848 19.3862 12.2811 19.1293 12.2059 18.8891C12.1308 18.6488 11.9875 18.4356 11.7934 18.2753C11.5994 18.1151 11.3629 18.0147 11.1128 17.9864C6.6256 17.4737 4.67756 15.6453 4.38451 11.6217C4.35204 11.303 4.33743 10.9827 4.34074 10.6624C4.31989 9.38472 4.74194 8.13921 5.53518 7.13747C5.61488 7.03303 5.69978 6.93266 5.78954 6.83674C5.94859 6.65874 6.05553 6.44034 6.09862 6.20553C6.1417 5.97072 6.11927 5.72858 6.03377 5.50569C5.94613 5.2712 5.87865 5.02966 5.83206 4.78369C5.72622 4.08428 5.76094 3.37079 5.93417 2.68496C7.06327 3.00391 8.12592 3.52308 9.07152 4.21776C9.22789 4.32193 9.40483 4.39125 9.59034 4.42103C9.77585 4.4508 9.9656 4.44034 10.1467 4.39033C12.7723 3.67765 15.5405 3.6781 18.1659 4.39163C18.348 4.44158 18.5387 4.45145 18.725 4.42057C18.9113 4.38968 19.0887 4.31877 19.2449 4.21273C20.1861 3.51517 21.2443 2.99135 22.3696 2.66596C22.5421 3.33532 22.5807 4.03215 22.4831 4.71646C22.4361 4.98612 22.3626 5.25049 22.2637 5.50572C22.1782 5.72861 22.1557 5.97075 22.1988 6.20556C22.2419 6.44036 22.3488 6.65876 22.5079 6.83677C22.6081 6.94969 22.7083 7.0715 22.7984 7.1857C23.586 8.17049 24.001 9.40168 23.9701 10.6624C23.9724 10.9997 23.9561 11.3369 23.9212 11.6724C23.6351 15.6427 21.6795 17.4725 17.1713 17.9864C16.9212 18.0148 16.6847 18.1154 16.4907 18.2758C16.2966 18.4362 16.1534 18.6496 16.0783 18.8899C16.0032 19.1303 15.9996 19.3873 16.0679 19.6296C16.1361 19.872 16.2733 20.0893 16.4628 20.2551C16.7858 20.5735 16.9981 20.9871 17.0686 21.4352C17.1563 21.783 17.1967 22.1411 17.1885 22.4998V25.5324C17.1757 26.3736 17.1757 27.0043 17.1757 27.2936C17.1757 27.6382 17.3126 27.9687 17.5562 28.2123C17.7999 28.456 18.1303 28.5929 18.4748 28.5929C18.8194 28.5929 19.1498 28.456 19.3934 28.2123C19.6371 27.9687 19.774 27.6382 19.774 27.2936C19.774 27.0119 19.774 26.3939 19.7866 25.5527V22.4998C19.7971 21.9252 19.7295 21.352 19.5856 20.7956C19.5444 20.613 19.494 20.4326 19.4346 20.2551C21.4109 19.9268 23.2065 18.9077 24.5019 17.3792C25.7973 15.8508 26.5084 13.9121 26.5086 11.9084C26.5514 11.4945 26.5714 11.0785 26.5683 10.6624C26.5971 8.86772 26.0191 7.11588 24.9279 5.6909Z" fill="white"/>
</svg>