<svg width="30" height="30" viewBox="0 0 30 30" fill="none" xmlns="http://www.w3.org/2000/svg">
<path d="M28.8247 15.1833C28.8247 14.0425 28.73 13.21 28.525 12.3467H15.1963V17.4958H23.02C22.8623 18.7754 22.0105 20.7025 20.1176 21.9974L20.0911 22.1698L24.3054 25.3607L24.5974 25.3892C27.2788 22.9687 28.8247 19.4075 28.8247 15.1833Z" fill="#488E9D"/>
<path d="M28.9199 11.8467L29.0117 12.2314C29.227 13.1384 29.3252 14.0106 29.3252 15.1836C29.3251 19.5333 27.7303 23.2354 24.9326 25.7607L24.7686 25.9082L24.5488 25.8867L24.2568 25.8584L24.1162 25.8447L24.0039 25.7598L19.7891 22.5684L19.5518 22.3887L19.5967 22.0938L19.623 21.9209L19.6562 21.707L19.835 21.585C21.3318 20.5609 22.1205 19.1137 22.4121 17.9961H14.6963V11.8467H28.9199Z" stroke="#10303C" stroke-opacity="0.83"/>
<path d="M15.1963 28.75C19.0292 28.75 22.247 27.5166 24.5973 25.3892L20.1176 21.9975C18.9188 22.8145 17.3099 23.385 15.1963 23.385C11.4422 23.385 8.25591 20.9646 7.1201 17.6192L6.95362 17.633L2.57153 20.9476L2.51422 21.1033C4.8487 25.6358 9.6439 28.75 15.1963 28.75Z" fill="#1F7A8C"/>
<path d="M7.59332 17.4581L7.69977 17.751C8.8507 20.7464 11.7722 22.8847 15.1959 22.8848C17.2146 22.8848 18.7252 22.3415 19.8365 21.584L20.1334 21.3819L20.4195 21.5987L24.899 24.9903L25.3804 25.3546L24.9332 25.7598C22.4812 27.9792 19.1392 29.2501 15.1959 29.2501C9.63246 29.2499 4.79974 26.2259 2.30426 21.7676L2.06989 21.3321L1.9693 21.1368L2.04547 20.9307L2.10211 20.7745L2.15289 20.6378L2.27008 20.5489L6.65192 17.2344L6.76813 17.1465L6.91266 17.1348L7.07867 17.1212L7.46832 17.0889L7.59332 17.4581Z" stroke="#10303C" stroke-opacity="0.83"/>
<path d="M7.12011 17.6192C6.82042 16.7558 6.64698 15.8308 6.64698 14.875C6.64698 13.9191 6.82042 12.9941 7.10435 12.1308L7.09641 11.9469L2.6594 8.5791L2.51423 8.64659C1.55208 10.5274 1 12.6396 1 14.875C1 17.1104 1.55208 19.2224 2.51423 21.1033L7.12011 17.6192Z" fill="#BFDBF7"/>
<path d="M2.96191 8.18066L7.39844 11.5488L7.58594 11.6904L7.5957 11.9258L7.60352 12.1094L7.60742 12.2002L7.5791 12.2871C7.3093 13.1075 7.14746 13.9796 7.14746 14.875C7.14746 15.7701 7.30972 16.6397 7.59277 17.4551L7.71191 17.7988L7.42188 18.0176L2.81543 21.502L2.34082 21.8613L2.06934 21.3311C1.07317 19.3837 0.500003 17.1939 0.5 14.875C0.5 12.5561 1.07316 10.3663 2.06934 8.41895L2.14746 8.26562L2.30371 8.19336L2.44824 8.12598L2.72168 7.99902L2.96191 8.18066Z" stroke="#10303C" stroke-opacity="0.83"/>
<path d="M15.1963 6.36496C17.862 6.36496 19.6601 7.49037 20.6855 8.43086L24.692 4.6075C22.2313 2.37209 19.0292 1 15.1963 1C9.64389 1 4.8487 4.11414 2.51422 8.64661L7.10433 12.1308C8.25591 8.78541 11.4422 6.36496 15.1963 6.36496Z" fill="#022B3A"/>
<path d="M15.1959 0.5C19.1566 0.5 22.4779 1.92082 25.0279 4.2373L25.4254 4.59863L25.0367 4.96875L21.0308 8.79297L20.692 9.11523L20.3472 8.7998C19.391 7.92272 17.7082 6.86523 15.1959 6.86523C11.6621 6.86541 8.661 9.14404 7.57672 12.2939L7.35211 12.9463L6.80231 12.5293L2.21149 9.04492L1.8775 8.79102L2.06989 8.41797C4.48849 3.72216 9.45309 0.500151 15.1959 0.5Z" stroke="#10303C" stroke-opacity="0.83"/>
</svg>
