<svg width="32" height="32" viewBox="0 0 32 32" fill="none" xmlns="http://www.w3.org/2000/svg">
<path d="M16.0067 2.66556C16.3601 2.66556 16.6991 2.52514 16.9491 2.2752C17.199 2.02525 17.3394 1.68625 17.3394 1.33278C17.3394 0.979304 17.199 0.640306 16.9491 0.390362C16.6991 0.140417 16.3601 0 16.0067 0L15.9933 0C15.6399 0.00176737 15.3016 0.14388 15.0529 0.395074C14.8042 0.646268 14.6655 0.985968 14.6672 1.33944C14.669 1.69292 14.8111 2.03121 15.0623 2.27991C15.3135 2.5286 15.6532 2.66732 16.0067 2.66556ZM26.3757 4.29421H26.3624C26.0077 4.29598 25.6682 4.43833 25.4184 4.69005C25.1685 4.94177 25.0287 5.28231 25.0296 5.63697C25.0305 5.99163 25.172 6.33147 25.4231 6.58195C25.6742 6.83242 26.0144 6.97308 26.369 6.97308C26.7237 6.97308 27.0639 6.83242 27.315 6.58195C27.5661 6.33147 27.7076 5.99163 27.7085 5.63697C27.7093 5.28231 27.5695 4.94177 27.3197 4.69005C27.0698 4.43833 26.7303 4.29598 26.3757 4.29421ZM30.6672 14.6606H30.6539C30.2992 14.6623 29.9598 14.8047 29.7099 15.0564C29.4601 15.3081 29.3203 15.6487 29.3211 16.0033C29.322 16.358 29.4635 16.6978 29.7146 16.9483C29.9657 17.1988 30.3059 17.3394 30.6606 17.3394C31.0152 17.3394 31.3554 17.1988 31.6065 16.9483C31.8576 16.6978 31.9991 16.358 32 16.0033C32.0009 15.6487 31.8611 15.3081 31.6112 15.0564C31.3614 14.8047 31.0219 14.6623 30.6672 14.6606ZM26.3757 25.0269H26.3624C26.0077 25.0287 25.6682 25.171 25.4184 25.4228C25.1685 25.6745 25.0287 26.015 25.0296 26.3697C25.0305 26.7243 25.172 27.0642 25.4231 27.3146C25.6742 27.5651 26.0144 27.7058 26.369 27.7058C26.7237 27.7058 27.0639 27.5651 27.315 27.3146C27.5661 27.0642 27.7076 26.7243 27.7085 26.3697C27.7093 26.015 27.5695 25.6745 27.3197 25.4228C27.0698 25.171 26.7303 25.0287 26.3757 25.0269ZM16.0067 29.3211H15.9933C15.6387 29.3229 15.2992 29.4653 15.0494 29.717C14.7995 29.9687 14.6597 30.3092 14.6606 30.6639C14.6615 31.0186 14.803 31.3584 15.0541 31.6089C15.3052 31.8593 15.6453 32 16 32C16.3547 32 16.6949 31.8593 16.946 31.6089C17.1971 31.3584 17.3386 31.0186 17.3394 30.6639C17.3403 30.3092 17.2005 29.9687 16.9507 29.717C16.7008 29.4653 16.3613 29.3229 16.0067 29.3211ZM5.64032 25.0269H5.62566C5.2707 25.0289 4.931 25.1715 4.68104 25.4235C4.43107 25.6755 4.29125 26.0164 4.29222 26.3713C4.29319 26.7263 4.43488 27.0664 4.68621 27.317C4.93755 27.5677 5.27803 27.7085 5.63299 27.7085C5.98795 27.7085 6.32842 27.5677 6.57976 27.317C6.8311 27.0664 6.97279 26.7263 6.97376 26.3713C6.97473 26.0164 6.8349 25.6755 6.58494 25.4235C6.33498 25.1715 5.99527 25.0289 5.64032 25.0269ZM1.34611 14.6606H1.33278C0.978118 14.6623 0.638635 14.8047 0.388786 15.0564C0.138938 15.3081 -0.000878104 15.6487 4.15011e-06 16.0033C0.000886404 16.358 0.142395 16.6978 0.393492 16.9483C0.64459 17.1988 0.984778 17.3394 1.33944 17.3394C1.69411 17.3394 2.03429 17.1988 2.28539 16.9483C2.53649 16.6978 2.678 16.358 2.67888 16.0033C2.67976 15.6487 2.53995 15.3081 2.2901 15.0564C2.04025 14.8047 1.70077 14.6623 1.34611 14.6606ZM5.64032 6.95977C5.99379 6.95977 6.33279 6.81935 6.58274 6.56941C6.83268 6.31946 6.9731 5.98047 6.9731 5.62699C6.9731 5.27352 6.83268 4.93452 6.58274 4.68458C6.33279 4.43463 5.99379 4.29421 5.64032 4.29421H5.62566C5.27218 4.29616 4.93396 4.43844 4.68539 4.68976C4.43682 4.94108 4.29827 5.28085 4.30021 5.63432C4.30215 5.9878 4.44444 6.32602 4.69576 6.57459C4.94707 6.82316 5.28684 6.96171 5.64032 6.95977ZM25.3095 19.9917C25.4974 19.9917 25.6826 19.9757 25.8666 19.9637C26.3916 18.6641 26.6543 17.2736 26.6397 15.8721C26.625 14.4706 26.3333 13.0858 25.7813 11.7975C25.2294 10.5092 24.428 9.34276 23.4234 8.36542C22.4187 7.38808 21.2307 6.61912 19.9277 6.10279C18.736 7.18777 17.9005 8.60798 17.5311 10.1767C17.1616 11.7454 17.2756 13.3892 17.8579 14.892C18.4402 16.3947 19.4636 17.6861 20.7936 18.5963C22.1235 19.5065 23.6978 19.993 25.3095 19.9917Z" fill="white"/>
<path d="M14.6473 11.995C14.6471 9.59147 15.4634 7.2592 16.9623 5.38038C16.6358 5.34913 16.3081 5.33267 15.9801 5.33107C14.1735 5.32826 12.3959 5.78451 10.814 6.657C9.23216 7.5295 7.89791 8.78961 6.93651 10.3191C5.97511 11.8486 5.41809 13.5972 5.31774 15.401C5.21738 17.2047 5.57698 19.0044 6.36277 20.6311C7.14857 22.2578 8.3348 23.6581 9.81013 24.7007C11.2855 25.7433 13.0015 26.3939 14.7972 26.5915C16.5929 26.7891 18.4094 26.5273 20.0761 25.8304C21.7428 25.1336 23.2052 24.0248 24.3259 22.6079C21.6814 22.3601 19.2243 21.1354 17.4345 19.1729C15.6448 17.2103 14.651 14.651 14.6473 11.995Z" fill="white"/>
</svg>
