<svg width="32" height="32" viewBox="0 0 32 32" fill="none" xmlns="http://www.w3.org/2000/svg">
<path d="M24.7137 22.0921C24.7537 22.0335 24.8017 21.9829 24.8403 21.9242C24.879 21.8656 24.9043 21.8069 24.9403 21.7496C25.1382 21.4424 25.3201 21.1253 25.4854 20.7993C25.5613 20.6474 25.636 20.4955 25.7066 20.3409C25.874 19.9714 26.0204 19.5927 26.1451 19.2067C26.1798 19.0961 26.2051 18.9841 26.2357 18.8721C26.3359 18.5164 26.4168 18.1556 26.4783 17.7913C26.501 17.658 26.5223 17.5247 26.5409 17.3914C26.6053 16.9281 26.6391 16.4611 26.6422 15.9933C26.6422 15.6415 26.6222 15.295 26.5889 14.9511C26.5809 14.8658 26.5663 14.7832 26.5556 14.6992C26.5253 14.4362 26.4853 14.1743 26.4356 13.9142C26.421 13.8409 26.4023 13.7676 26.3863 13.6943C26.3264 13.4184 26.2531 13.1479 26.1758 12.88L26.1358 12.7534C25.6775 11.2951 24.9081 9.95383 23.8806 8.82213C22.8532 7.69044 21.5922 6.79535 20.1849 6.19875C20.1343 6.1761 20.0823 6.15744 20.0317 6.13611C19.8184 6.04726 19.6021 5.96774 19.3826 5.89755C19.2184 5.84304 19.0531 5.79194 18.8868 5.74428C18.7979 5.72029 18.7091 5.69763 18.6202 5.6763C18.0893 5.5369 17.5483 5.43887 17.0022 5.38309C16.6626 5.34826 16.3214 5.33091 15.98 5.33111C14.5243 5.32481 13.0828 5.61665 11.7442 6.18865C10.4056 6.76065 9.19828 7.6007 8.19669 8.65704C7.19509 9.71337 6.42041 10.9636 5.92037 12.3307C5.42034 13.6978 5.20554 15.1529 5.28922 16.6062C5.3729 18.0594 5.75329 19.4802 6.40693 20.7809C7.06058 22.0816 7.97365 23.2346 9.08987 24.169C10.2061 25.1034 11.5018 25.7993 12.8972 26.2139C14.2926 26.6285 15.7582 26.753 17.2035 26.5796C17.3248 26.5663 17.4434 26.5423 17.5633 26.525C17.8459 26.4823 18.1258 26.4317 18.4017 26.3677C18.5349 26.3357 18.6682 26.3011 18.8015 26.2637C19.0601 26.1918 19.3146 26.1109 19.5652 26.0212C19.6985 25.9732 19.8317 25.9292 19.957 25.8772C20.2236 25.7679 20.4901 25.6453 20.746 25.516C20.8446 25.4667 20.9459 25.4241 21.0432 25.3721C21.3681 25.1949 21.6835 25.0009 21.9882 24.791C22.1308 24.6937 22.2654 24.5844 22.404 24.4805C22.5746 24.3472 22.7439 24.2139 22.9065 24.0806C23.0691 23.9474 23.189 23.8301 23.3263 23.6995C23.4636 23.5689 23.6248 23.4023 23.7688 23.2477C23.8914 23.1144 24.0167 22.9811 24.1326 22.8478C24.3405 22.6039 24.5311 22.3507 24.7137 22.0921ZM18.2044 8.35119C18.359 8.39517 18.5216 8.4205 18.6709 8.47247L18.7855 8.51379C19.1653 8.65519 19.5338 8.82539 19.8877 9.02291C19.985 9.07756 20.0783 9.13886 20.1729 9.19751C20.4358 9.35982 20.6886 9.53784 20.9299 9.73062C21.0792 9.8479 21.2218 9.97318 21.3618 10.1011C21.5341 10.2575 21.6985 10.421 21.8549 10.5916C22.0002 10.7489 22.1388 10.9101 22.2707 11.0794C22.4339 11.2875 22.5865 11.5037 22.7279 11.7271C22.8105 11.8604 22.8931 11.9857 22.9678 12.1203C23.1339 12.4215 23.2804 12.7331 23.4062 13.0532C23.4489 13.1639 23.4889 13.2745 23.5275 13.3864C23.6545 13.7474 23.7552 14.1171 23.8287 14.4926C23.8421 14.5619 23.8501 14.6339 23.8607 14.7032C23.9339 15.1294 23.9727 15.5609 23.9767 15.9933C23.9735 16.342 23.9482 16.6901 23.9007 17.0356C23.8874 17.1395 23.8714 17.2435 23.8527 17.3474C23.808 17.6106 23.7497 17.8713 23.6781 18.1285C23.6501 18.2324 23.6235 18.3364 23.5902 18.439C23.5025 18.7112 23.3993 18.9782 23.281 19.2387C23.2251 19.3624 23.166 19.4846 23.1037 19.6052C23.1037 19.6198 23.0877 19.6332 23.081 19.6465C21.4179 19.1725 19.9548 18.169 18.9138 16.7881C17.8728 15.4072 17.3107 13.7243 17.3128 11.995C17.311 10.7262 17.617 9.47585 18.2044 8.35119ZM7.98334 15.9933C7.98548 13.9706 8.75407 12.0239 10.1343 10.5452C11.5145 9.06658 13.4038 8.16591 15.4216 8.02466C14.8964 9.3245 14.6336 10.7154 14.6484 12.1173C14.6632 13.5192 14.9553 14.9042 15.5079 16.1927C16.0604 17.4811 16.8625 18.6475 17.8679 19.6246C18.8732 20.6016 20.062 21.37 21.3658 21.8856C21.3058 21.9402 21.2485 21.9962 21.1858 22.0495C21.0526 22.1601 20.9193 22.2654 20.786 22.368C20.6887 22.44 20.5941 22.5173 20.4941 22.5853C20.2628 22.7456 20.023 22.8933 19.7758 23.0278C19.7131 23.0624 19.6425 23.0891 19.5825 23.121C19.3786 23.2237 19.172 23.321 18.9601 23.4063C18.8681 23.4436 18.7735 23.4756 18.6789 23.5089C18.3909 23.6144 18.0967 23.7021 17.7979 23.7714C17.5882 23.8201 17.3765 23.8602 17.1635 23.8914C17.0742 23.9047 16.9863 23.922 16.897 23.9314C16.5927 23.9689 16.2865 23.9885 15.98 23.99C13.8598 23.9879 11.8271 23.1447 10.3278 21.6455C8.82864 20.1463 7.98546 18.1135 7.98334 15.9933ZM16.0067 2.66556C16.3601 2.66556 16.6991 2.52514 16.9491 2.2752C17.199 2.02525 17.3394 1.68625 17.3394 1.33278C17.3394 0.979304 17.199 0.640306 16.9491 0.390362C16.6991 0.140417 16.3601 0 16.0067 0L15.9933 0C15.6399 0.00176737 15.3016 0.14388 15.0529 0.395074C14.8042 0.646268 14.6655 0.985968 14.6672 1.33944C14.669 1.69292 14.8111 2.03121 15.0623 2.27991C15.3135 2.5286 15.6532 2.66732 16.0067 2.66556ZM26.3757 4.29421H26.3623C26.0077 4.29598 25.6682 4.43833 25.4184 4.69005C25.1685 4.94177 25.0287 5.28231 25.0296 5.63697C25.0305 5.99163 25.172 6.33147 25.4231 6.58195C25.6742 6.83242 26.0143 6.97308 26.369 6.97308C26.7237 6.97308 27.0639 6.83242 27.315 6.58195C27.5661 6.33147 27.7076 5.99163 27.7085 5.63697C27.7093 5.28231 27.5695 4.94177 27.3197 4.69005C27.0698 4.43833 26.7303 4.29598 26.3757 4.29421ZM30.6672 14.6606H30.6539C30.2992 14.6623 29.9597 14.8047 29.7099 15.0564C29.4601 15.3081 29.3202 15.6487 29.3211 16.0033C29.322 16.358 29.4635 16.6978 29.7146 16.9483C29.9657 17.1988 30.3059 17.3394 30.6606 17.3394C31.0152 17.3394 31.3554 17.1988 31.6065 16.9483C31.8576 16.6978 31.9991 16.358 32 16.0033C32.0009 15.6487 31.8611 15.3081 31.6112 15.0564C31.3614 14.8047 31.0219 14.6623 30.6672 14.6606ZM26.3757 25.0269H26.3623C26.0077 25.0287 25.6682 25.171 25.4184 25.4228C25.1685 25.6745 25.0287 26.015 25.0296 26.3697C25.0305 26.7243 25.172 27.0642 25.4231 27.3146C25.6742 27.5651 26.0143 27.7058 26.369 27.7058C26.7237 27.7058 27.0639 27.5651 27.315 27.3146C27.5661 27.0642 27.7076 26.7243 27.7085 26.3697C27.7093 26.015 27.5695 25.6745 27.3197 25.4228C27.0698 25.171 26.7303 25.0287 26.3757 25.0269ZM16.0067 29.3211H15.9933C15.6387 29.3229 15.2992 29.4653 15.0493 29.717C14.7995 29.9687 14.6597 30.3092 14.6606 30.6639C14.6614 31.0186 14.803 31.3584 15.0541 31.6089C15.3051 31.8593 15.6453 32 16 32C16.3547 32 16.6949 31.8593 16.9459 31.6089C17.197 31.3584 17.3386 31.0186 17.3394 30.6639C17.3403 30.3092 17.2005 29.9687 16.9507 29.717C16.7008 29.4653 16.3613 29.3229 16.0067 29.3211ZM5.64032 25.0269H5.62566C5.2707 25.0289 4.931 25.1715 4.68104 25.4235C4.43107 25.6755 4.29125 26.0164 4.29222 26.3713C4.29319 26.7263 4.43487 27.0664 4.68621 27.317C4.93755 27.5677 5.27802 27.7084 5.63299 27.7084C5.98795 27.7084 6.32842 27.5677 6.57976 27.317C6.8311 27.0664 6.97278 26.7263 6.97376 26.3713C6.97473 26.0164 6.8349 25.6755 6.58494 25.4235C6.33497 25.1715 5.99527 25.0289 5.64032 25.0269ZM1.34611 14.6606H1.33278C0.978118 14.6623 0.638634 14.8047 0.388786 15.0564C0.138938 15.3081 -0.000878103 15.6487 4.15011e-06 16.0033C0.000886404 16.358 0.142395 16.6978 0.393492 16.9483C0.64459 17.1988 0.984777 17.3394 1.33944 17.3394C1.69411 17.3394 2.03429 17.1988 2.28539 16.9483C2.53649 16.6978 2.678 16.358 2.67888 16.0033C2.67976 15.6487 2.53995 15.3081 2.2901 15.0564C2.04025 14.8047 1.70077 14.6623 1.34611 14.6606ZM5.64032 6.95977C5.99379 6.95977 6.33279 6.81935 6.58273 6.56941C6.83268 6.31946 6.97309 5.98047 6.97309 5.62699C6.97309 5.27352 6.83268 4.93452 6.58273 4.68457C6.33279 4.43463 5.99379 4.29421 5.64032 4.29421H5.62566C5.27218 4.29616 4.93396 4.43844 4.68539 4.68976C4.43682 4.94108 4.29826 5.28085 4.30021 5.63432C4.30215 5.9878 4.44443 6.32602 4.69575 6.57459C4.94707 6.82316 5.28684 6.96171 5.64032 6.95977Z" fill="#022B3A"/>
</svg>
