<svg width="19" height="16" viewBox="0 0 19 16" fill="none" xmlns="http://www.w3.org/2000/svg">
<g clip-path="url(#clip0_94_7683)">
<path d="M9.93745 1C7.41245 1 5.39058 2.15 3.9187 3.51875C2.4562 4.875 1.47808 6.5 1.01558 7.61562C0.912451 7.8625 0.912451 8.1375 1.01558 8.38437C1.47808 9.5 2.4562 11.125 3.9187 12.4812C5.39058 13.85 7.41245 15 9.93745 15C12.4625 15 14.4843 13.85 15.9562 12.4812C17.4187 11.1219 18.3968 9.5 18.8624 8.38437C18.9656 8.1375 18.9656 7.8625 18.8624 7.61562C18.3968 6.5 17.4187 4.875 15.9562 3.51875C14.4843 2.15 12.4625 1 9.93745 1ZM5.43745 8C5.43745 6.80653 5.91156 5.66193 6.75547 4.81802C7.59938 3.97411 8.74398 3.5 9.93745 3.5C11.1309 3.5 12.2755 3.97411 13.1194 4.81802C13.9633 5.66193 14.4375 6.80653 14.4375 8C14.4375 9.19347 13.9633 10.3381 13.1194 11.182C12.2755 12.0259 11.1309 12.5 9.93745 12.5C8.74398 12.5 7.59938 12.0259 6.75547 11.182C5.91156 10.3381 5.43745 9.19347 5.43745 8ZM9.93745 6C9.93745 7.10313 9.04058 8 7.93745 8C7.71558 8 7.50308 7.9625 7.30308 7.89687C7.1312 7.84062 6.9312 7.94688 6.93745 8.12813C6.94683 8.34375 6.97808 8.55937 7.03745 8.775C7.46558 10.375 9.11245 11.325 10.7125 10.8969C12.3125 10.4688 13.2625 8.82188 12.8343 7.22188C12.4875 5.925 11.3406 5.05312 10.0656 5C9.88433 4.99375 9.77808 5.19062 9.83433 5.36562C9.89995 5.56562 9.93745 5.77812 9.93745 6Z" fill="#1E293B"/>
</g>
<defs>
<clipPath id="clip0_94_7683">
<path d="M0.9375 0H18.9375V16H0.9375V0Z" fill="white"/>
</clipPath>
</defs>
</svg>
