<svg width="14" height="15" viewBox="0 0 14 15" fill="none" xmlns="http://www.w3.org/2000/svg">
<g clip-path="url(#clip0_94_6792)">
<path d="M5.76955 0.949628C5.60549 0.777362 5.35939 0.711737 5.12971 0.771894C4.90002 0.83205 4.72228 1.01525 4.66213 1.24494L4.2301 2.95392L2.53478 2.47541C2.3051 2.40978 2.059 2.47541 1.89221 2.64221C1.72541 2.809 1.65978 3.0551 1.72541 3.28478L2.20392 4.9801L0.49494 5.41486C0.265253 5.47228 0.0847842 5.65275 0.0218935 5.88244C-0.0409971 6.11213 0.0273623 6.35549 0.199628 6.51955L1.46291 7.75002L0.199628 8.98049C0.0273623 9.14455 -0.0382627 9.39064 0.0218935 9.62033C0.0820498 9.85002 0.265253 10.0278 0.49494 10.0879L2.20392 10.5199L1.72541 12.2153C1.65978 12.4449 1.72541 12.691 1.89221 12.8578C2.059 13.0246 2.3051 13.0903 2.53478 13.0246L4.2301 12.5461L4.66213 14.2551C4.71955 14.4848 4.90002 14.6653 5.12971 14.7281C5.35939 14.791 5.60275 14.7227 5.76955 14.5531L7.00002 13.2899L8.23049 14.5531C8.39728 14.7227 8.64064 14.791 8.87033 14.7281C9.10002 14.6653 9.27775 14.4848 9.33791 14.2551L9.76994 12.5461L11.4653 13.0246C11.6949 13.0903 11.941 13.0246 12.1078 12.8578C12.2746 12.691 12.3403 12.4449 12.2746 12.2153L11.7961 10.5199L13.5051 10.0879C13.7348 10.0305 13.9153 9.85002 13.9781 9.62033C14.041 9.39064 13.9727 9.14728 13.8031 8.98049L12.5399 7.75002L13.8031 6.51955C13.9727 6.35275 14.041 6.10939 13.9781 5.87971C13.9153 5.65002 13.7348 5.47228 13.5051 5.41213L11.7961 4.9801L12.2746 3.28478C12.3403 3.0551 12.2746 2.809 12.1078 2.64221C11.941 2.47541 11.6949 2.40978 11.4653 2.47541L9.76994 2.95392L9.33517 1.24494C9.27775 1.01525 9.09728 0.834784 8.8676 0.771894C8.63791 0.709003 8.39455 0.777362 8.23049 0.949628L7.00002 2.21291L5.76955 0.949628Z" fill="white"/>
</g>
<defs>
<clipPath id="clip0_94_6792">
<path d="M0 0.75H14V14.75H0V0.75Z" fill="white"/>
</clipPath>
</defs>
</svg>
