<svg width="20" height="21" viewBox="0 0 20 21" fill="none" xmlns="http://www.w3.org/2000/svg">
<g clip-path="url(#clip0_94_6704)">
<path d="M11.25 1.75C11.25 1.05859 10.6914 0.5 10 0.5C9.30859 0.5 8.75 1.05859 8.75 1.75V11.2305L5.88281 8.36328C5.39453 7.875 4.60156 7.875 4.11328 8.36328C3.625 8.85156 3.625 9.64453 4.11328 10.1328L9.11328 15.1328C9.60156 15.6211 10.3945 15.6211 10.8828 15.1328L15.8828 10.1328C16.3711 9.64453 16.3711 8.85156 15.8828 8.36328C15.3945 7.875 14.6016 7.875 14.1133 8.36328L11.25 11.2305V1.75ZM2.5 14.25C1.12109 14.25 0 15.3711 0 16.75V18C0 19.3789 1.12109 20.5 2.5 20.5H17.5C18.8789 20.5 20 19.3789 20 18V16.75C20 15.3711 18.8789 14.25 17.5 14.25H13.5352L11.7656 16.0195C10.7891 16.9961 9.20703 16.9961 8.23047 16.0195L6.46484 14.25H2.5ZM16.875 16.4375C17.1236 16.4375 17.3621 16.5363 17.5379 16.7121C17.7137 16.8879 17.8125 17.1264 17.8125 17.375C17.8125 17.6236 17.7137 17.8621 17.5379 18.0379C17.3621 18.2137 17.1236 18.3125 16.875 18.3125C16.6264 18.3125 16.3879 18.2137 16.2121 18.0379C16.0363 17.8621 15.9375 17.6236 15.9375 17.375C15.9375 17.1264 16.0363 16.8879 16.2121 16.7121C16.3879 16.5363 16.6264 16.4375 16.875 16.4375Z" fill="#1695AE"/>
</g>
<defs>
<clipPath id="clip0_94_6704">
<path d="M0 0.5H20V20.5H0V0.5Z" fill="white"/>
</clipPath>
</defs>
</svg>
