<svg width="16" height="15" viewBox="0 0 16 15" fill="none" xmlns="http://www.w3.org/2000/svg">
<g clip-path="url(#clip0_94_6786)">
<path d="M8.66522 1.24219C8.52029 0.941406 8.21404 0.75 7.87772 0.75C7.54139 0.75 7.23787 0.941406 7.09021 1.24219L5.33201 4.85977L1.40545 5.43945C1.07732 5.48867 0.803887 5.71836 0.702715 6.03281C0.601543 6.34727 0.683575 6.69453 0.918731 6.92695L3.76795 9.74609L3.09529 13.7301C3.04061 14.0582 3.17732 14.3918 3.44803 14.5859C3.71873 14.7801 4.07693 14.8047 4.37225 14.6488L7.88045 12.7758L11.3887 14.6488C11.684 14.8047 12.0422 14.7828 12.3129 14.5859C12.5836 14.3891 12.7203 14.0582 12.6656 13.7301L11.9902 9.74609L14.8394 6.92695C15.0746 6.69453 15.1594 6.34727 15.0554 6.03281C14.9515 5.71836 14.6808 5.48867 14.3527 5.43945L10.4234 4.85977L8.66522 1.24219Z" fill="white"/>
</g>
<defs>
<clipPath id="clip0_94_6786">
<path d="M0 0.75H15.75V14.75H0V0.75Z" fill="white"/>
</clipPath>
</defs>
</svg>
