<svg width="23" height="21" viewBox="0 0 23 21" fill="none" xmlns="http://www.w3.org/2000/svg">
<g clip-path="url(#clip0_110_820)">
<path d="M11.25 1.75C8.09375 1.75 5.56641 3.1875 3.72656 4.89844C1.89844 6.59375 0.675781 8.625 0.0976562 10.0195C-0.03125 10.3281 -0.03125 10.6719 0.0976562 10.9805C0.675781 12.375 1.89844 14.4062 3.72656 16.1016C5.56641 17.8125 8.09375 19.25 11.25 19.25C14.4062 19.25 16.9336 17.8125 18.7734 16.1016C20.6016 14.4023 21.8242 12.375 22.4062 10.9805C22.5352 10.6719 22.5352 10.3281 22.4062 10.0195C21.8242 8.625 20.6016 6.59375 18.7734 4.89844C16.9336 3.1875 14.4062 1.75 11.25 1.75ZM5.625 10.5C5.625 9.00816 6.21763 7.57742 7.27252 6.52252C8.32742 5.46763 9.75816 4.875 11.25 4.875C12.7418 4.875 14.1726 5.46763 15.2275 6.52252C16.2824 7.57742 16.875 9.00816 16.875 10.5C16.875 11.9918 16.2824 13.4226 15.2275 14.4775C14.1726 15.5324 12.7418 16.125 11.25 16.125C9.75816 16.125 8.32742 15.5324 7.27252 14.4775C6.21763 13.4226 5.625 11.9918 5.625 10.5ZM11.25 8C11.25 9.37891 10.1289 10.5 8.75 10.5C8.47266 10.5 8.20703 10.4531 7.95703 10.3711C7.74219 10.3008 7.49219 10.4336 7.5 10.6602C7.51172 10.9297 7.55078 11.1992 7.625 11.4688C8.16016 13.4688 10.2188 14.6562 12.2188 14.1211C14.2188 13.5859 15.4063 11.5273 14.8711 9.52734C14.4375 7.90625 13.0039 6.81641 11.4102 6.75C11.1836 6.74219 11.0508 6.98828 11.1211 7.20703C11.2031 7.45703 11.25 7.72266 11.25 8Z" fill="white"/>
</g>
<defs>
<clipPath id="clip0_110_820">
<path d="M0 0.5H22.5V20.5H0V0.5Z" fill="white"/>
</clipPath>
</defs>
</svg>
